<?xml version="1.0" encoding="utf-8"?>
<!-- Generator: Adobe Illustrator 27.5.0, SVG Export Plug-In . SVG Version: 6.00 Build 0)  -->
<svg version="1.1" xmlns="http://www.w3.org/2000/svg" xmlns:xlink="http://www.w3.org/1999/xlink" x="0px" y="0px"
	 viewBox="0 0 500 500" style="enable-background:new 0 0 500 500;" xml:space="preserve">
<g id="Background_Simple">
	<g>
		<path style="fill:#C6FF00;" d="M317.536,102.411c-5.01-2.153-10.084-4.135-15.212-5.933
			c-35.756-12.533-78.489-5.381-109.826,15.283c-16.572,10.928-28.109,25.558-36.706,43.332
			c-8.741,18.072-14.822,37.553-27.329,53.56c-12.241,15.666-29.392,28.059-36.293,47.391
			c-15.043,42.137,10.665,99.676,58.716,103.671c33.911,2.819,46.47,22.06,81.968,31.767c35.497,9.707,70.607,8.499,111.201-20.481
			c16.391-11.702,30.749-27.121,37.007-46.615c5.63-17.538,0.434-35.853,1.223-53.763c0.973-22.106,16.429-38.662,24.691-58.184
			c12.253-28.953-4.872-54.405-27.296-72.386C360.845,124.951,339.825,111.99,317.536,102.411z"/>
		<path style="opacity:0.7;fill:#FFFFFF;" d="M317.536,102.411c-5.01-2.153-10.084-4.135-15.212-5.933
			c-35.756-12.533-78.489-5.381-109.826,15.283c-16.572,10.928-28.109,25.558-36.706,43.332
			c-8.741,18.072-14.822,37.553-27.329,53.56c-12.241,15.666-29.392,28.059-36.293,47.391
			c-15.043,42.137,10.665,99.676,58.716,103.671c33.911,2.819,46.47,22.06,81.968,31.767c35.497,9.707,70.607,8.499,111.201-20.481
			c16.391-11.702,30.749-27.121,37.007-46.615c5.63-17.538,0.434-35.853,1.223-53.763c0.973-22.106,16.429-38.662,24.691-58.184
			c12.253-28.953-4.872-54.405-27.296-72.386C360.845,124.951,339.825,111.99,317.536,102.411z"/>
	</g>
</g>
<g id="Shadow">
	<ellipse style="fill:#263238;" cx="255.268" cy="397.032" rx="59.67" ry="12.346"/>
</g>
<g id="Earth_Globe">
	<g>
		
			<ellipse transform="matrix(0.7071 -0.7071 0.7071 0.7071 -93.7283 250.2946)" style="fill:#FFFFFF;stroke:#263238;stroke-miterlimit:10;" cx="255.268" cy="238.287" rx="132.074" ry="132.074"/>
		<path style="fill:#263238;stroke:#263238;stroke-miterlimit:10;" d="M255.268,356.353c-70.593,0-128.248-55.384-131.889-125.07
			c-0.121,2.32-0.185,4.655-0.185,7.004c0,72.943,59.132,132.074,132.074,132.074s132.074-59.132,132.074-132.074
			c0-2.35-0.064-4.685-0.185-7.004C383.516,300.969,325.861,356.353,255.268,356.353z"/>
		<g>
			<polygon style="fill:#C6FF00;stroke:#263238;stroke-miterlimit:10;" points="248.011,179.025 251.772,184.04 260.236,187.175 
				262.116,193.757 256.788,195.951 256.788,197.205 266.191,200.967 270.58,200.026 272.774,196.578 272.147,190.623 
				266.505,188.428 263.057,182.786 250.518,177.144 			"/>
			<path style="fill:#C6FF00;stroke:#263238;stroke-miterlimit:10;" d="M329.51,321.961l-10.031-4.075l-12.225-4.388h-9.717
				l-9.09-1.881l-10.031,2.194l-5.642,0.313h-3.448l-6.583,3.762l-6.269,2.508l-8.463-5.329l2.194-8.777l-5.329-2.194h-6.269
				l-0.94-2.821l0.627-5.642l-2.194-3.135l-4.388,0.627l-1.254,3.135l-5.329,0.313l-4.702-5.642l-1.881-7.523l4.702-8.777
				l9.09,0.627l2.508,2.194h3.762l4.702-2.821l4.075,1.254l5.642,9.717l2.194-0.314l-0.627-7.21l-1.881-3.762l0.627-5.956
				l11.598-5.015l1.567-11.598l5.015-4.075l4.075-7.21l3.135-0.627l7.209-4.702l0.314-2.508l-5.015,0.313l-0.94-2.508h-3.448
				l-5.329,1.254l2.508-4.075l10.971-3.134l2.508-2.821l4.388,6.896l2.821,2.821l4.388-1.254l-1.881-4.075l-6.583-4.702
				l-7.523-8.463l-7.837-5.329l-7.523-1.254l-3.761-3.762l-5.015-1.254l-0.627,1.254l-0.627,9.09l1.254,3.135l-2.821,10.031
				l-6.269-5.015l0.94-4.388l-6.583-3.135l-2.821-3.448l1.567-7.836l9.09-6.583l0.627-7.523l-3.448,0.313l-2.194-2.821l-0.94-4.702
				l-2.194-0.313l-1.254,5.015l-3.448,0.627l-1.567-10.971l-2.508-1.567l-4.388-1.881l-5.015,2.508l6.269,5.956l1.254,5.329
				l-11.285-8.463l-7.836-8.463l-0.627-8.463l-8.15-2.508l-6.269,4.075c0,0-3.135,1.881-4.702,2.508
				c-1.567,0.627-7.523,1.254-7.523,1.254l-1.254,5.329l-7.21,0.314l0.627,3.448l11.598,1.881l5.956,6.583v10.971l-3.448,9.717
				l0.627,10.344l-8.777,15.359l-1.881,22.882l2.821,13.165l4.075,10.031l4.702,0.627l-1.567-5.015l-2.508-3.762l-1.567-6.896
				l2.821-0.627l4.388,11.285l3.135,10.031v8.15l5.956,7.21l10.658,7.836l16.3,4.388l5.015,4.702l3.761,5.015l5.642,3.448
				l6.896,1.881l6.896-0.314c0,0-0.314,3.135-0.314,4.702c0,1.567-4.388,6.896-4.388,6.896l-3.448,6.269l2.508,6.896l6.896,2.821
				l9.717,10.031l4.388,1.881v4.702l0.547,2.189c24.943-4.023,47.547-15.027,65.743-30.949l0.162-2.273l8.463-15.359l-4.075-2.821
				L329.51,321.961z"/>
			<path style="fill:#C6FF00;stroke:#263238;stroke-miterlimit:10;" d="M362.109,198.146l-3.448-5.956l-4.388-6.896l-1.254-9.404
				l5.642,0.94l0.314-3.135l-4.075-0.313l3.448-1.567l3.761-2.194v-3.134l-3.761-5.015l-0.803-6.746
				c-24.22-29.609-61.039-48.512-102.277-48.512c-18.746,0-36.575,3.914-52.727,10.956l7.228,5.12l-4.388,5.642l-5.956,1.254
				l-0.627,8.463l-2.508,0.94l-3.135,3.448l0.313,5.642l5.329,0.627l-2.194,5.329h5.329l9.09-11.598l0.94-5.015l8.777-0.627
				l2.194-3.761l9.09-0.94l0.94-5.329l6.583-0.313c0,0,4.702-2.508,5.642-2.508c0.94,0,5.329,1.567,5.329,1.567l4.702,3.761h6.583
				l5.642-3.448l7.21,0.627c0,0,1.881,1.254,3.448,1.254c1.567,0,6.269-2.194,6.269-2.194l9.09,5.642l3.762,2.821v4.702l4.702,0.627
				l1.567-2.821l4.075,1.881l-0.313,2.508l-9.404,2.508l5.329,6.896l11.285,6.269l4.702,6.269l6.896,0.627l1.567-3.135l2.508-0.627
				l-8.15-6.269l-5.015-0.627l4.075-1.254l-3.761-5.329l5.329-0.314l6.896,3.762l1.567,7.523l3.448,4.075l2.821,9.09l6.896,5.015
				v10.344l7.21,4.702l-0.313,3.448l-0.94,4.075l1.881,5.642l0.627,2.821l5.329,0.94l2.508-5.329L362.109,198.146z"/>
			<path style="fill:#C6FF00;stroke:#263238;stroke-miterlimit:10;" d="M366.184,166.568v1.8l-1.567,5.015l0.94,4.388l3.448,1.254
				v5.956l-3.762-1.567l-0.94,16.927l-3.761,6.896l2.508,8.777l4.075,3.762v16.927l4.075,13.165l4.388,10.031l7.21,1.881
				l2.508-6.269l1.022-0.8c0.667-5.381,1.015-10.86,1.015-16.421C387.342,211.845,379.567,187.221,366.184,166.568z"/>
			<polygon style="fill:#C6FF00;stroke:#263238;stroke-miterlimit:10;" points="293.776,164.606 273.087,155.515 263.997,155.829 
				261.803,161.785 258.041,157.71 251.145,159.277 250.518,169.621 256.161,173.696 260.236,167.74 264.938,172.442 
				274.655,180.905 276.535,189.996 284.685,200.34 297.851,198.146 297.537,193.444 294.716,188.115 294.089,175.577 
				297.224,170.248 			"/>
			<polygon style="fill:#C6FF00;stroke:#263238;stroke-miterlimit:10;" points="310.702,171.502 306,170.248 301.926,173.696 
				304.12,182.786 308.195,182.786 			"/>
			<polygon style="fill:#C6FF00;stroke:#263238;stroke-miterlimit:10;" points="339.854,177.457 329.196,171.815 327.002,168.054 
				324.495,168.994 326.689,175.263 328.569,183.413 333.271,185.294 334.212,184.04 331.391,179.338 339.54,182.473 			"/>
			<polygon style="fill:#C6FF00;stroke:#263238;stroke-miterlimit:10;" points="248.324,290.616 247.07,291.87 256.474,294.691 
				260.236,299.079 266.191,299.706 268.386,296.258 261.176,295.004 			"/>
			<polygon style="fill:#C6FF00;stroke:#263238;stroke-miterlimit:10;" points="276.222,296.571 269.639,298.452 270.58,300.96 
				278.73,300.96 280.297,298.452 277.476,298.766 			"/>
		</g>
	</g>
</g>
<g id="Airplane_1">
	<g>
		<path style="fill:none;stroke:#263238;stroke-miterlimit:10;stroke-dasharray:2;" d="M211.119,290.986
			c-46.141,0-83.547-40.819-83.547-91.171c0-50.352,37.405-91.171,83.547-91.171c4.391,0,8.702,0.37,12.91,1.082"/>
		<path style="fill:#263238;" d="M218.657,296.034c1.018,0.131,1.958-0.561,2.137-1.571l0,0c0.213-1.207-0.593-2.403-1.792-2.657
			l-9.906-2.102l-0.212-0.027l-3.23-6.347l1.576,0.172c0.479,0.052,0.949-0.243,1.06-0.712c0.128-0.543-0.238-1.072-0.783-1.149
			l-2.923-0.414l-2.429-4.773l2.198,0.239c0.492,0.054,0.941-0.284,1.028-0.771l0,0c0.418-0.292,0.262-0.945-0.243-1.017
			l-4.063-0.575l-1.611-3.165c-0.599-1.178-1.693-2.027-2.983-2.316l-1.027-0.23l2.836,10.562c0,0,1.908,6.769-0.922,9.038
			l-11.351-1.438l-0.153-0.004l-3.436-6.71l-2.617-0.752l0.915,7.336l-1.278-0.032c-0.124-0.003-0.162,0.166-0.049,0.216
			l1.301,0.581l-3.579,6.693l2.972,0.381l4.982-5.12l0.247,0.11l10.23,2.325c1.258,0.695,3.033,2.146,1.888,4.45
			c-1.686,3.393-9.426,13.604-9.426,13.604l1.793,0.029c1.167,0.019,2.297-0.403,3.165-1.183l2.487-2.232l3.371,0.367
			c0.479,0.052,0.949-0.243,1.06-0.712c0.128-0.543-0.238-1.072-0.783-1.149l-1.713-0.242l3.656-3.282l3.372,0.367
			c0.48,0.052,0.949-0.243,1.06-0.712c0.128-0.543-0.238-1.072-0.783-1.149l-1.714-0.243l5.556-4.987L218.657,296.034z"/>
	</g>
</g>
<g id="Airplane_2">
	<g>
		<path style="fill:none;stroke:#263238;stroke-miterlimit:10;stroke-dasharray:2;" d="M130.401,281.252
			c-10.643-5.975-19.546-15.175-25.057-27.016c-14.165-30.433-0.561-66.78,30.385-81.184s67.516-1.409,81.68,29.024
			c0.67,1.44,1.278,2.893,1.825,4.356"/>
		<path style="fill:#263238;" d="M226.494,240.113c0.336,0.969,1.374,1.504,2.358,1.214l0,0c1.176-0.346,1.887-1.601,1.581-2.788
			l-2.531-9.806l-0.07-0.201l4.244-5.719l0.549,1.488c0.167,0.453,0.64,0.741,1.11,0.631c0.544-0.127,0.853-0.691,0.68-1.213
			l-0.932-2.801l3.191-4.301l0.765,2.074c0.171,0.464,0.673,0.717,1.148,0.577l0,0c0.448,0.244,0.963-0.187,0.802-0.671
			l-1.295-3.894l2.117-2.852c0.788-1.061,1.061-2.419,0.745-3.702l-0.251-1.022l-8.192,7.244c0,0-5.211,4.723-8.502,3.2
			l-3.769-10.803l-0.065-0.138l4.477-6.066l-0.492-2.678l-6.16,4.087l-0.541-1.158c-0.052-0.112-0.221-0.071-0.216,0.053
			l0.059,1.424l-7.587-0.223l0.983,2.831l6.803,2.18l0.011,0.27l2.475,10.195c-0.062,1.436-0.571,3.671-3.143,3.673
			c-3.789,0.002-16.378-2.379-16.378-2.379l0.773,1.619c0.503,1.053,1.384,1.877,2.469,2.307l3.107,1.232l1.173,3.181
			c0.167,0.452,0.64,0.741,1.11,0.632c0.544-0.127,0.853-0.691,0.68-1.213l-0.546-1.641l4.567,1.811l1.173,3.182
			c0.167,0.453,0.64,0.741,1.11,0.632c0.544-0.127,0.853-0.691,0.68-1.213l-0.546-1.643l6.939,2.753L226.494,240.113z"/>
	</g>
</g>
<g id="Airplane_3">
	<g>
		<path style="fill:none;stroke:#263238;stroke-miterlimit:10;stroke-dasharray:2;" d="M273.044,258.043
			c3.901,5.699,7.241,12.135,9.812,19.168c6.715,18.371,6.788,37.017,1.466,51.627"/>
		<path style="fill:#263238;" d="M266.957,242.554c-0.527-0.88-1.653-1.19-2.557-0.705l0,0c-1.08,0.58-1.519,1.953-0.977,3.052
			l4.484,9.08l0.11,0.183l-2.983,6.467l-0.841-1.344c-0.256-0.409-0.778-0.594-1.216-0.391c-0.506,0.236-0.694,0.851-0.417,1.326
			l1.486,2.551l-2.243,4.863l-1.173-1.874c-0.263-0.42-0.806-0.564-1.242-0.329v0c-0.488-0.147-0.904,0.38-0.648,0.821l2.065,3.546
			l-1.488,3.225c-0.554,1.2-0.543,2.585,0.029,3.776l0.455,0.949l6.536-8.768c0,0,4.133-5.69,7.667-4.873l5.9,9.802l0.092,0.122
			l-3.14,6.854l1.03,2.521l5.193-5.262l0.767,1.023c0.074,0.099,0.231,0.024,0.2-0.096l-0.35-1.382l7.472-1.335l-1.542-2.57
			l-7.105-0.741l-0.066-0.262l-4.51-9.473c-0.233-1.418-0.193-3.71,2.325-4.238c3.708-0.778,16.519-1.024,16.519-1.024l-1.088-1.426
			c-0.707-0.928-1.739-1.554-2.889-1.753l-3.293-0.57l-1.799-2.874c-0.256-0.409-0.778-0.595-1.215-0.391
			c-0.506,0.236-0.694,0.851-0.417,1.326l0.871,1.495l-4.841-0.838l-1.8-2.875c-0.256-0.409-0.778-0.595-1.216-0.391
			c-0.506,0.236-0.694,0.851-0.417,1.326l0.871,1.496l-7.356-1.274L266.957,242.554z"/>
	</g>
</g>
<g id="Airplane_4">
	<g>
		<g>
			<g>
				<path style="fill:none;stroke:#263238;stroke-miterlimit:10;" d="M393.28,291.353c0.206-0.262,0.411-0.525,0.614-0.789"/>
				<path style="fill:none;stroke:#263238;stroke-miterlimit:10;stroke-dasharray:2.0018,2.0018;" d="M395.098,288.965
					c19.588-26.638,23.23-62.154,6.339-91.011c-11.68-19.954-30.944-32.906-52.569-37.664"/>
				<path style="fill:none;stroke:#263238;stroke-miterlimit:10;" d="M347.889,160.081c-0.326-0.068-0.653-0.134-0.98-0.198"/>
			</g>
		</g>
		<path style="fill:#263238;" d="M387.366,296.107c-0.486,0.903-0.177,2.029,0.703,2.557l0,0c1.051,0.631,2.456,0.306,3.122-0.723
			l5.506-8.499l0.101-0.188l7.082-0.746l-0.724,1.411c-0.22,0.429-0.113,0.973,0.286,1.244c0.461,0.314,1.086,0.161,1.353-0.32
			l1.432-2.582l5.326-0.561l-1.01,1.967c-0.226,0.44-0.072,0.981,0.353,1.236l0,0c0.124,0.495,0.789,0.582,1.037,0.136l1.99-3.589
			l3.532-0.372c1.314-0.138,2.499-0.856,3.23-1.957l0.582-0.877l-10.878-1.128c0,0-7.004-0.639-8.11-4.093l5.402-10.086l0.058-0.141
			l7.496-0.809l1.639-2.175l-7.178-1.769l0.487-1.182c0.047-0.114-0.097-0.211-0.185-0.123l-1.008,1.007l-4.971-5.736l-1.419,2.639
			l3,6.484l-0.191,0.191l-5.83,8.722c-1.099,0.926-3.089,2.064-4.831,0.172c-2.566-2.788-9.333-13.668-9.333-13.668l-0.669,1.664
			c-0.435,1.083-0.445,2.289-0.028,3.379l1.195,3.121l-1.548,3.016c-0.22,0.429-0.112,0.973,0.286,1.244
			c0.462,0.314,1.086,0.161,1.353-0.32l0.839-1.513l1.757,4.588l-1.549,3.017c-0.22,0.429-0.112,0.973,0.286,1.244
			c0.462,0.314,1.086,0.161,1.353-0.32l0.839-1.514l2.67,6.972L387.366,296.107z"/>
	</g>
</g>
<g id="Airplane_5">
	<g>
		<path style="fill:none;stroke:#263238;stroke-miterlimit:10;stroke-dasharray:2;" d="M213.24,111.423
			c12.503-7.487,26.39-11.656,41.015-11.656c54.878,0,99.366,58.705,99.366,131.122c0,41.537-14.637,78.563-37.475,102.588"/>
		<path style="fill:#263238;" d="M293.968,358.847c-0.605,0.828-0.454,1.986,0.345,2.63l0,0c0.954,0.769,2.391,0.64,3.192-0.288
			l6.62-7.663l0.125-0.172l7.118,0.233l-0.911,1.298c-0.277,0.395-0.245,0.948,0.113,1.272c0.414,0.374,1.054,0.308,1.384-0.132
			l1.772-2.361l5.353,0.175l-1.27,1.81c-0.284,0.405-0.206,0.962,0.18,1.272v0c0.055,0.507,0.702,0.685,1.008,0.277l2.464-3.281
			l3.55,0.116c1.321,0.043,2.592-0.505,3.468-1.495l0.697-0.788l-10.62-2.61c0,0-6.85-1.594-7.472-5.168l6.735-9.249l0.077-0.132
			l7.536,0.227l1.922-1.93l-6.867-2.737l0.644-1.104c0.062-0.107-0.067-0.222-0.166-0.147l-1.137,0.86l-4.137-6.364l-1.767,2.42
			l2.082,6.834l-0.215,0.163l-6.972,7.84c-1.215,0.767-3.343,1.621-4.809-0.493c-2.159-3.113-7.369-14.819-7.369-14.819
			l-0.891,1.557c-0.579,1.013-0.755,2.207-0.491,3.343l0.756,3.255l-1.947,2.776c-0.277,0.395-0.245,0.948,0.113,1.272
			c0.414,0.375,1.054,0.308,1.384-0.132l1.039-1.383l1.111,4.786l-1.948,2.776c-0.277,0.395-0.245,0.948,0.113,1.272
			c0.414,0.374,1.054,0.308,1.384-0.132l1.039-1.384l1.688,7.272L293.968,358.847z"/>
	</g>
</g>
<g id="Locations">
	<g>
		<path style="fill:#263238;" d="M231.529,88.083c-4.169,0-7.549,3.38-7.549,7.549c0,4.169,7.549,13.546,7.549,13.546
			s7.549-9.377,7.549-13.546C239.078,91.463,235.698,88.083,231.529,88.083z M231.426,98.631c-1.713,0-3.102-1.389-3.102-3.102
			c0-1.713,1.389-3.102,3.102-3.102s3.102,1.389,3.102,3.102C234.528,97.242,233.139,98.631,231.426,98.631z"/>
		<path style="fill:#263238;" d="M336.773,123.335c-4.169,0-7.549,3.38-7.549,7.549c0,4.169,7.549,13.546,7.549,13.546
			s7.549-9.377,7.549-13.546C344.322,126.715,340.943,123.335,336.773,123.335z M336.67,133.882c-1.713,0-3.102-1.389-3.102-3.102
			c0-1.713,1.389-3.102,3.102-3.102c1.713,0,3.102,1.389,3.102,3.102C339.772,132.493,338.383,133.882,336.67,133.882z"/>
		<path style="fill:#263238;" d="M283.767,338.473c-4.169,0-7.549,3.38-7.549,7.549s7.549,13.546,7.549,13.546
			s7.549-9.377,7.549-13.546S287.936,338.473,283.767,338.473z M283.664,349.02c-1.713,0-3.102-1.389-3.102-3.102
			c0-1.713,1.389-3.102,3.102-3.102c1.713,0,3.102,1.389,3.102,3.102C286.766,347.631,285.377,349.02,283.664,349.02z"/>
		<path style="fill:#263238;" d="M230.067,246.638c-4.169,0-7.549,3.38-7.549,7.549s7.549,13.546,7.549,13.546
			s7.549-9.377,7.549-13.546S234.236,246.638,230.067,246.638z M229.964,257.185c-1.713,0-3.102-1.389-3.102-3.102
			s1.389-3.102,3.102-3.102s3.102,1.389,3.102,3.102S231.677,257.185,229.964,257.185z"/>
	</g>
</g>
</svg>
